<?xml version="1.0" encoding="UTF-8"?>
<svg id="_图层_1" xmlns="http://www.w3.org/2000/svg" version="1.1" viewBox="0 0 566.82 648.05">
  <!-- Generator: Adobe Illustrator 30.5.1, SVG Export Plug-In . SVG Version: 2.1.4 Build 3)  -->
  <defs>
    <style>
      .st0 {
        fill: #fff;
      }
    </style>
  </defs>
  <path class="st0" d="M543.5,2.03c1.43-1.31,3.3-2.03,5.24-2.03h10.32c4.29,0,7.76,3.48,7.76,7.76v401.42c0,2.44-1.15,4.74-3.1,6.21l-54.61,41.03c-5.12,3.85-12.43.19-12.43-6.21V176.56c0-6.76-8.04-10.29-13.02-5.71l-191.28,175.87c-1.78,1.63-1.65,4.47.27,5.94l250.02,191.53c1.92,1.47,3.04,3.75,3.04,6.16v89.92c0,6.37-7.24,10.03-12.37,6.25l-245.46-180.75c-2.75-2.03-6.51-2.01-9.25.03l-241.43,180.54c-5.12,3.83-12.41.18-12.41-6.22v-90.58c0-2.4,1.11-4.66,3.01-6.13l246-190.75c1.9-1.47,2.02-4.3.25-5.93L82.68,170.84c-4.98-4.57-12.81-1.04-12.81,5.72v273.63c0,6.4-7.53,10.05-12.64,6.2L2.78,415.38c-1.95-1.47-2.78-3.76-2.78-6.2V7.76C0,3.47,3.16,0,7.45,0h14.29C23.7,0,25.59.74,27.02,2.07l248.17,230.46c1.44,1.33,3.32,2.07,5.28,2.07h5.49c1.94,0,3.81-.72,5.24-2.03L543.49,2.03h0Z"/>
</svg>
