<svg xmlns="http://www.w3.org/2000/svg" viewBox="0 0 512 512" fill="none">
  <defs>
    <linearGradient id="meshx-background" x1="68" y1="42" x2="445" y2="476" gradientUnits="userSpaceOnUse">
      <stop stop-color="#5E5CE6"/>
      <stop offset=".5" stop-color="#356EDE"/>
      <stop offset="1" stop-color="#0A3E9A"/>
    </linearGradient>
    <radialGradient id="meshx-light" cx="0" cy="0" r="1" gradientTransform="rotate(45 76 194) scale(332)">
      <stop stop-color="#C8E7FF" stop-opacity=".38"/>
      <stop offset="1" stop-color="#C8E7FF" stop-opacity="0"/>
    </radialGradient>
    <filter id="meshx-shadow" x="66" y="77" width="380" height="377" filterUnits="userSpaceOnUse" color-interpolation-filters="sRGB">
      <feDropShadow dx="0" dy="12" stdDeviation="13" flood-color="#071D58" flood-opacity=".28"/>
    </filter>
  </defs>
  <rect width="512" height="512" rx="132" fill="url(#meshx-background)"/>
  <rect width="512" height="512" rx="132" fill="url(#meshx-light)"/>
  <path d="M74 92h35l147 137L403 92h35v194l-39 34V170L285 276l-29 27-29-27L113 170v150l-39-34V92Z" fill="#fff" filter="url(#meshx-shadow)"/>
  <path d="M120 425v-71l136-127 136 127v71L256 298 120 425Z" fill="#fff" filter="url(#meshx-shadow)"/>
  <path d="M108 88c55-40 126-46 189-18" stroke="#fff" stroke-opacity=".22" stroke-width="12" stroke-linecap="round"/>
</svg>
